<?xml version="1.0" standalone="no"?>
<!DOCTYPE svg PUBLIC "-//W3C//DTD SVG 20010904//EN"
 "http://www.w3.org/TR/2001/REC-SVG-20010904/DTD/svg10.dtd">
<svg version="1.0"
  xmlns="http://www.w3.org/2000/svg" viewBox="0 0 300.000000 300.000000" preserveAspectRatio="xMidYMid meet">

  <g transform="translate(0.000000,300.000000) scale(0.100000,-0.100000)" fill="#000000" stroke="none">
    <path d="M1345 2490 c-302 -47 -577 -244 -707 -505 -24 -48 -25 -52 -11 -110
7 -33 17 -63 22 -68 4 -4 17 18 29 50 75 205 261 396 471 482 122 51 204 66
346 65 144 -2 232 -20 348 -72 199 -91 371 -269 447 -464 31 -80 38 -77 59 20
10 47 9 57 -10 95 -64 125 -190 267 -308 346 -90 61 -214 117 -312 141 -97 24
-283 34 -374 20z"/>
    <path d="M851 2051 c-9 -15 10 -63 98 -248 120 -253 150 -325 136 -330 -53
-18 -133 -75 -150 -105 -17 -33 -18 -43 -8 -113 13 -91 36 -129 81 -133 26 -3
41 5 80 43 51 47 105 136 117 192 14 67 -60 264 -216 576 -65 130 -71 137 -99
137 -19 0 -33 -7 -39 -19z m269 -678 c0 -10 -54 -101 -75 -127 -23 -30 -32 -9
-12 27 10 18 13 26 6 20 -20 -20 -31 -15 -18 8 8 17 8 20 -1 14 -8 -5 -11 -3
-8 6 9 26 108 74 108 52z"/>
    <path d="M2053 2058 c-21 -25 -175 -343 -218 -447 -80 -197 -84 -237 -30 -341
66 -125 154 -181 204 -131 22 22 41 101 41 170 0 62 -20 88 -102 131 -35 18
-64 34 -66 36 -7 5 64 169 156 357 76 157 94 202 85 215 -13 21 -56 27 -70 10z
m-139 -701 c22 -12 42 -28 44 -36 3 -9 0 -11 -9 -6 -11 6 -12 5 -1 -6 18 -19
15 -32 -5 -24 -15 5 -16 4 -5 -6 6 -7 12 -22 12 -32 0 -16 -3 -17 -14 -7 -23
18 -76 105 -76 123 0 22 7 21 54 -6z"/>
    <path d="M1172 1893 c-41 -82 -54 -130 -43 -152 13 -23 53 -28 69 -8 5 6 23
45 40 86 36 85 31 111 -18 111 -24 0 -33 -7 -48 -37z"/>
    <path d="M1722 1918 c-19 -19 -15 -40 23 -122 29 -63 38 -76 58 -76 56 0 60
39 12 138 -28 59 -38 72 -58 72 -12 0 -28 -5 -35 -12z"/>
    <path d="M459 1859 c-8 -17 -6 -38 15 -103 48 -153 125 -209 342 -246 176 -30
204 -26 204 27 0 28 -20 39 -91 47 -66 8 -66 9 -99 141 -25 102 -37 120 -73
111 -37 -9 -40 -34 -17 -124 11 -44 20 -85 20 -91 0 -7 -20 -3 -52 9 -69 25
-130 91 -148 157 -7 26 -19 58 -27 71 -17 28 -58 29 -74 1z"/>
    <path d="M2443 1868 c-6 -7 -18 -40 -28 -73 -23 -75 -89 -146 -153 -165 -23
-7 -44 -11 -46 -9 -2 2 4 36 14 74 25 93 25 122 0 135 -34 18 -58 3 -70 -43
-32 -120 -44 -164 -51 -179 -6 -10 -28 -19 -61 -23 -66 -9 -100 -29 -96 -57 6
-40 29 -44 165 -24 209 30 280 61 338 149 42 63 75 179 59 205 -14 21 -57 28
-71 10z"/>
    <path d="M1373 1549 c-116 -10 -135 -20 -131 -62 l3 -32 98 3 97 4 0 -264 c0
-277 2 -288 45 -288 43 0 45 11 45 288 l0 265 95 -7 95 -7 12 27 c11 23 10 28
-10 44 -21 17 -60 24 -207 34 -27 2 -92 0 -142 -5z"/>
    <path d="M530 1472 c0 -20 9 -78 19 -127 71 -347 335 -625 687 -727 69 -20
100 -23 254 -22 161 0 182 2 263 27 176 54 306 135 433 270 147 156 230 335
252 544 l8 71 -46 -23 -45 -23 -18 -88 c-45 -215 -163 -400 -342 -532 -138
-102 -283 -152 -464 -160 -142 -6 -228 6 -345 49 -258 94 -474 331 -539 594
-8 33 -18 77 -21 97 -6 30 -14 41 -51 62 l-45 25 0 -37z"/>
    <path d="M1282 1401 c-7 -4 -19 -31 -27 -60 -7 -28 -27 -76 -44 -106 -24 -42
-29 -61 -24 -87 8 -42 28 -83 63 -128 32 -40 60 -117 60 -161 0 -70 45 -93
180 -93 65 -1 94 4 125 19 38 19 40 22 51 91 12 74 24 100 78 176 52 72 54
106 13 192 -19 39 -38 88 -42 109 -8 51 -46 71 -76 40 -20 -20 -20 -22 -5 -82
8 -33 27 -83 40 -109 23 -46 24 -51 10 -78 -9 -16 -24 -38 -34 -49 -28 -32
-57 -95 -69 -157 -12 -56 -13 -57 -52 -63 -22 -4 -60 -4 -83 -1 l-42 7 -13 61
c-14 71 -30 105 -78 167 -36 48 -41 75 -17 106 16 22 54 137 54 165 0 21 -25
50 -43 50 -7 0 -18 -4 -25 -9z"/>
  </g>
</svg>
